<svg xmlns="http://www.w3.org/2000/svg" width="800" height="800" viewBox="-2 0 60 60"><title>android-brain</title><g id="People" fill="none" fill-rule="evenodd" stroke="none" stroke-width="1"><g id="Icon-9" fill="#000" transform="translate(-2)"><path id="android-brain" d="M22 27a1.001 1.001 0 0 0 2 0 1.001 1.001 0 0 0-2 0m2 18a1.001 1.001 0 0 0-2 0 1.001 1.001 0 0 0 2 0m-8-18a1.001 1.001 0 0 0-2 0 1.001 1.001 0 0 0 2 0m0 12a1.001 1.001 0 0 0-2 0 1.001 1.001 0 0 0 2 0m6-22a1.001 1.001 0 0 0 2 0 1.001 1.001 0 0 0-2 0m-6 1v6.184A2.99 2.99 0 0 1 17.815 26h2.37A2.99 2.99 0 0 1 23 24c1.654 0 3 1.346 3 3a3 3 0 0 1-2 2.816v12.368c1.161.415 2 1.514 2 2.816a3 3 0 0 1-2 2.816V51a1 1 0 1 1-2 0v-3.185a2.99 2.99 0 0 1-1.953-2.355l-3.754-3.753q-.003-.004-.006-.009A2.96 2.96 0 0 1 15 42c-1.654 0-3-1.346-3-3s1.346-3 3-3 3 1.346 3 3c0 .462-.114.896-.302 1.287l.009.006 2.907 2.908A3 3 0 0 1 22 42.184V29.815A2.99 2.99 0 0 1 20.185 28h-2.37A2.99 2.99 0 0 1 15 30c-1.654 0-3-1.346-3-3 0-1.302.839-2.401 2-2.816V17a1 1 0 0 1 1-1h5.185A2.99 2.99 0 0 1 22 14.184V11a1 1 0 1 1 2 0v3.184c1.161.415 2 1.514 2 2.816 0 1.654-1.346 3-3 3a2.99 2.99 0 0 1-2.815-2Zm39.633 19.245A6.97 6.97 0 0 0 58 32a6.93 6.93 0 0 0-2.585-5.426A5.94 5.94 0 0 0 56 24a6 6 0 0 0-2.792-5.05A5.9 5.9 0 0 0 54 16a5.98 5.98 0 0 0-4.011-5.651q.01-.175.011-.349c0-3.309-2.691-6-6-6-.807 0-1.593.164-2.327.48C40.813 1.876 38.34 0 35.5 0c-4.208 0-6.079 3.796-6.48 5.804-.007.033.002.065 0 .099-.003.034-.02.062-.02.097v46.94c-.226 2.839-2.637 5.06-5.5 5.06-2.853 0-5.257-2.229-5.474-5.076-.04-.521-.504-.924-1.026-.924-.312 0-.606.146-.796.394A4 4 0 0 1 13 54c-2.206 0-4-1.794-4-4 0-.908.316-1.776.916-2.511a1 1 0 0 0-1.003-1.605A4 4 0 0 1 8 46c-2.206 0-4-1.794-4-4a4.01 4.01 0 0 1 2.604-3.733 1 1 0 0 0 .109-1.825A4.98 4.98 0 0 1 4 32c0-1.764.907-3.364 2.427-4.28a1.003 1.003 0 0 0 .302-1.43A3.97 3.97 0 0 1 6 24a4.01 4.01 0 0 1 2.631-3.741c.311-.114.546-.375.627-.696a1 1 0 0 0-.226-.91A3.98 3.98 0 0 1 8 16a3.986 3.986 0 0 1 3.301-3.927 1.003 1.003 0 0 0 .803-1.202A4 4 0 0 1 12 10c0-2.206 1.794-4 4-4 .866 0 1.701.289 2.416.836a1.001 1.001 0 0 0 1.605-.712C20.211 3.812 22.179 2 24.5 2c1.114 0 2.035.358 2.815 1.094a1 1 0 0 0 1.373-1.455C27.535.551 26.126 0 24.5 0c-2.84 0-5.313 1.876-6.173 4.48A5.9 5.9 0 0 0 16 4a6.006 6.006 0 0 0-5.989 6.349A5.98 5.98 0 0 0 6 16c0 1.037.276 2.051.792 2.95A6 6 0 0 0 4 24c0 .896.2 1.771.585 2.574A6.93 6.93 0 0 0 2 32c0 2.042.878 3.936 2.367 5.245A6.01 6.01 0 0 0 2 42a6.01 6.01 0 0 0 5.363 5.966A5.8 5.8 0 0 0 7 50c0 3.309 2.691 6 6 6a5.95 5.95 0 0 0 3.416-1.068C17.436 57.886 20.255 60 23.5 60c3.908 0 7.201-3.042 7.497-6.924.001-.013-.005-.025-.005-.038.001-.014.008-.024.008-.038V6.11C31.148 5.496 32.135 2 35.5 2c2.321 0 4.289 1.812 4.479 4.124a1.001 1.001 0 0 0 1.605.712A3.95 3.95 0 0 1 44 6c2.206 0 4 1.794 4 4 0 .274-.034.559-.104.871a1.003 1.003 0 0 0 .803 1.202A3.986 3.986 0 0 1 52 16c0 .968-.366 1.91-1.032 2.653a1 1 0 0 0-.226.91c.081.321.316.582.627.696A4.01 4.01 0 0 1 54 24c0 .818-.252 1.609-.729 2.29a1 1 0 0 0 .302 1.43A4.96 4.96 0 0 1 56 32a4.98 4.98 0 0 1-2.713 4.442 1 1 0 0 0 .109 1.825A4.01 4.01 0 0 1 56 42c0 2.206-1.794 4-4 4-.279 0-.578-.038-.913-.116a1 1 0 0 0-1.003 1.605c.6.735.916 1.603.916 2.511 0 2.206-1.794 4-4 4a3.96 3.96 0 0 1-3.198-1.625 1.003 1.003 0 0 0-1.499-.119 1 1 0 0 0-.329.668C41.757 55.771 39.353 58 36.5 58a5.48 5.48 0 0 1-3.43-1.194 1 1 0 0 0-1.242 1.568A7.57 7.57 0 0 0 36.5 60c3.247 0 6.068-2.118 7.086-5.075A5.9 5.9 0 0 0 47 56c3.309 0 6-2.691 6-6 0-.702-.123-1.386-.363-2.034A6.01 6.01 0 0 0 58 42a6.01 6.01 0 0 0-2.367-4.755M38 45a1 1 0 0 0 1 1c1.458 0 3 1.542 3 3a1 1 0 1 0 2 0c0-2.57-2.43-5-5-5a1 1 0 0 0-1 1m9-27c-1.458 0-3-1.542-3-3a1 1 0 1 0-2 0c0 2.57 2.43 5 5 5a1 1 0 1 0 0-2M35 40a1 1 0 0 0 1-1c0-1.458 1.542-3 3-3a1 1 0 1 0 0-2c-2.57 0-5 2.43-5 5a1 1 0 0 0 1 1m4-12a1 1 0 1 0 0-2c-1.458 0-3-1.542-3-3a1 1 0 1 0-2 0c0 2.57 2.43 5 5 5m10-4a1 1 0 0 0-1 1c0 1.458-1.542 3-3 3a1 1 0 1 0 0 2c2.57 0 5-2.43 5-5a1 1 0 0 0-1-1m-4 12a1 1 0 1 0 0 2c1.458 0 3 1.542 3 3a1 1 0 1 0 2 0c0-2.57-2.43-5-5-5M34 14c0-2.57 2.43-5 5-5a1 1 0 1 1 0 2c-1.458 0-3 1.542-3 3a1 1 0 1 1-2 0"/></g></g></svg>